# Blender v2.76 (sub 0) OBJ File: 'noticeboard.blend'
# www.blender.org
mtllib noticeboard.mtl
o Cube
v -0.491749 -1.000000 0.620766
v -0.491749 -1.000000 1.000000
v -0.870736 -1.000000 1.000000
v -0.870736 -1.000000 0.620766
v -0.491749 1.000000 0.620767
v -0.870736 1.000000 0.620766
v -0.491749 3.372268 0.620767
v -0.491750 3.372268 1.000001
v -0.870736 3.372268 0.620766
v -0.870737 3.372268 1.000000
v -0.491745 1.000000 -2.063392
v -0.870732 1.000000 -2.063393
v -0.491745 3.372268 -2.063392
v -0.870732 3.372268 -2.063393
v -0.491744 3.372268 -2.436562
v -0.870732 3.372268 -2.436562
v -0.491745 -1.009223 -2.063392
v -0.870732 -1.009223 -2.063393
v -0.491744 -1.009223 -2.436562
v -0.870732 -1.009223 -2.436562
v -0.870736 3.200264 0.426148
v -0.870736 1.172004 0.426148
v -0.870733 3.200264 -1.868775
v -0.870733 1.172004 -1.868775
v -0.669778 3.200264 0.426149
v -0.669778 1.172004 0.426149
v -0.669775 3.200264 -1.868775
v -0.669775 1.172004 -1.868775
vn 0.000000 -1.000000 0.000000
vn 1.000000 0.000000 0.000000
vn -1.000000 -0.000000 -0.000000
vn 0.000000 0.000000 -1.000000
vn 0.000000 1.000000 0.000000
vn -0.000000 -0.000000 1.000000
usemtl Material
s off
f 1//1 2//1 3//1 4//1
f 2//2 1//2 7//2 8//2
f 4//3 3//3 10//3 9//3
f 5//4 1//4 4//4 6//4
f 7//5 9//5 10//5 8//5
f 3//6 2//6 8//6 10//6
f 9//3 14//3 23//3 21//3
f 9//5 7//5 13//5 14//5
f 14//3 16//3 20//3 18//3
f 7//2 5//2 11//2 13//2
f 14//5 13//5 15//5 16//5
f 6//1 12//1 11//1 5//1
f 17//1 18//1 20//1 19//1
f 18//6 17//6 11//6 12//6
f 17//2 19//2 15//2 13//2
f 19//4 20//4 16//4 15//4
f 24//5 22//5 26//5 28//5
f 12//3 6//3 22//3 24//3
f 14//3 12//3 24//3 23//3
f 6//3 9//3 21//3 22//3
f 26//3 25//3 27//3 28//3
f 23//6 24//6 28//6 27//6
f 21//1 23//1 27//1 25//1
f 22//4 21//4 25//4 26//4
